<svg width="27" height="28" viewBox="0 0 27 28" fill="none" xmlns="http://www.w3.org/2000/svg">
<path d="M2.70529 21.3503C0.100039 18.3548 0.461833 13.8681 3.51339 11.3288C6.56494 8.78951 11.1507 9.15928 13.7559 12.1547L16.8563 15.7194C19.4615 18.7148 19.0997 23.2015 16.0482 25.7408C12.9966 28.2801 8.41089 27.9103 5.80563 24.9149L2.70529 21.3503Z" fill="#F6A89E"/>
<path fill-rule="evenodd" clip-rule="evenodd" d="M15.7033 16.6788L12.6029 13.1142C10.5413 10.7438 6.91253 10.4512 4.49777 12.4606C2.08301 14.47 1.79672 18.0205 3.85831 20.3908L6.95865 23.9554C9.02024 26.3258 12.649 26.6184 15.0638 24.609C17.4786 22.5996 17.7649 19.0492 15.7033 16.6788ZM3.51339 11.3288C0.461833 13.8681 0.100039 18.3548 2.70529 21.3503L5.80563 24.9149C8.41089 27.9103 12.9966 28.2801 16.0482 25.7408C19.0997 23.2015 19.4615 18.7148 16.8563 15.7194L13.7559 12.1547C11.1507 9.15928 6.56494 8.78951 3.51339 11.3288Z" fill="#33322E"/>
<path d="M6.01853 13.8789C4.44663 10.2078 6.16806 6.0046 9.86347 4.49073C13.5589 2.97686 17.8289 4.72564 19.4008 8.39673L21.1814 12.5554C22.7533 16.2265 21.0319 20.4297 17.3365 21.9436C13.6411 23.4574 9.37108 21.7087 7.79918 18.0376L6.01853 13.8789Z" fill="#8CD4CB"/>
<path fill-rule="evenodd" clip-rule="evenodd" d="M19.7934 13.124L18.0127 8.96536C16.7669 6.05582 13.3827 4.66982 10.4539 5.86964C7.52509 7.06947 6.16075 10.4008 7.40657 13.3103L9.18722 17.4689C10.433 20.3785 13.8172 21.7645 16.746 20.5647C19.6749 19.3648 21.0392 16.0335 19.7934 13.124ZM9.86347 4.49073C6.16806 6.0046 4.44663 10.2078 6.01853 13.8789L7.79918 18.0376C9.37108 21.7087 13.6411 23.4574 17.3365 21.9436C21.0319 20.4297 22.7533 16.2265 21.1814 12.5554L19.4008 8.39673C17.8289 4.72564 13.5589 2.97686 9.86347 4.49073Z" fill="#33322E"/>
<path d="M11.3768 8.04879C10.9153 4.07014 13.7684 0.48669 17.7493 0.0449124C21.7301 -0.396865 25.3314 2.47033 25.7929 6.44898L26.3025 10.8422C26.7639 14.8208 23.9109 18.4043 19.93 18.846C15.9491 19.2878 12.3479 16.4206 11.8864 12.442L11.3768 8.04879Z" fill="#F4D799"/>
<path fill-rule="evenodd" clip-rule="evenodd" d="M24.8116 11.0076L24.302 6.61442C23.936 3.45869 21.0796 1.18452 17.9221 1.53492C14.7646 1.88533 12.5016 4.72761 12.8677 7.88334L13.3773 12.2765C13.7433 15.4323 16.5997 17.7064 19.7572 17.356C22.9147 17.0056 25.1776 14.1633 24.8116 11.0076ZM17.7493 0.0449124C13.7684 0.48669 10.9153 4.07014 11.3768 8.04879L11.8864 12.442C12.3479 16.4206 15.9491 19.2878 19.93 18.846C23.9109 18.4043 26.7639 14.8208 26.3025 10.8422L25.7929 6.44898C25.3314 2.47033 21.7301 -0.396865 17.7493 0.0449124Z" fill="#33322E"/>
<path fill-rule="evenodd" clip-rule="evenodd" d="M22.5949 5.57877C22.9358 5.81399 23.0215 6.28107 22.7863 6.62201L18.8049 12.3931C18.6792 12.5753 18.4795 12.6927 18.2592 12.7138C18.0389 12.735 17.8205 12.6578 17.6625 12.5028L15.1635 10.0532C14.8677 9.76327 14.863 9.28842 15.1529 8.99262C15.4429 8.69682 15.9177 8.69208 16.2135 8.98203L18.0762 10.8079L21.5517 5.77022C21.7869 5.42927 22.2539 5.34356 22.5949 5.57877Z" fill="#33322E"/>
</svg>
